HIERARCHY
ROOT Hips
{
    OFFSET 0.000000 0.000000 0.000000
    CHANNELS 6 Xposition Yposition Zposition Zrotation Xrotation Yrotation
    JOINT Spine
    {
        OFFSET -0.000000 8.349382 0.000000
        CHANNELS 3 Zrotation Xrotation Yrotation
        JOINT Spine1
        {
            OFFSET -0.000000 23.269058 0.000000
            CHANNELS 3 Zrotation Xrotation Yrotation
            JOINT Neck
            {
                OFFSET -0.000000 23.173496 2.106681
                CHANNELS 3 Zrotation Xrotation Yrotation
                JOINT Head
                {
                    OFFSET -0.000000 14.255042 -2.036435
                    CHANNELS 3 Zrotation Xrotation Yrotation
                    End Site
                    {
                        OFFSET -0.000000 25.455433 0.000000
                    }
                }
            }
            JOINT LeftShoulder
            {
                OFFSET 3.917082 21.531742 0.000256
                CHANNELS 3 Zrotation Xrotation Yrotation
                JOINT LeftArm
                {
                    OFFSET 10.728225 0.000000 0.000000
                    CHANNELS 3 Zrotation Xrotation Yrotation
                    JOINT LeftForeArm
                    {
                        OFFSET 30.046112 0.000000 0.000000
                        CHANNELS 3 Zrotation Xrotation Yrotation
                        JOINT LeftHand
                        {
                            OFFSET 29.023712 0.000000 0.000000
                            CHANNELS 3 Zrotation Xrotation Yrotation
                            End Site
                            {
                                OFFSET 15.273261 0.000000 0.000000
                            }
                        }
                    }
                }
            }
            JOINT RightShoulder
            {
                OFFSET -3.920664 21.531742 0.000256
                CHANNELS 3 Zrotation Xrotation Yrotation
                JOINT RightArm
                {
                    OFFSET -10.728225 0.000000 0.000000
                    CHANNELS 3 Zrotation Xrotation Yrotation
                    JOINT RightForeArm
                    {
                        OFFSET -30.046112 0.000000 0.000000
                        CHANNELS 3 Zrotation Xrotation Yrotation
                        JOINT RightHand
                        {
                            OFFSET -29.023712 0.000000 0.000000
                            CHANNELS 3 Zrotation Xrotation Yrotation
                            End Site
                            {
                                OFFSET -15.273261 0.000000 0.000000
                            }
                        }
                    }
                }
            }
        }
    }
    JOINT LeftUpLeg
    {
        OFFSET 10.182174 0.000000 0.000000
        CHANNELS 3 Zrotation Xrotation Yrotation
        JOINT LeftLeg
        {
            OFFSET -0.000000 -49.689274 0.000000
            CHANNELS 3 Zrotation Xrotation Yrotation
            JOINT LeftFoot
            {
                OFFSET -0.000000 -39.155319 0.000000
                CHANNELS 3 Zrotation Xrotation Yrotation
                JOINT LeftToeBase
                {
                    OFFSET -0.000000 -6.618412 15.273261
                    CHANNELS 3 Zrotation Xrotation Yrotation
                    End Site
                    {
                        OFFSET -0.000000 0.000000 4.072869
                    }
                }
            }
        }
    }
    JOINT RightUpLeg
    {
        OFFSET -10.182174 0.000000 0.000000
        CHANNELS 3 Zrotation Xrotation Yrotation
        JOINT RightLeg
        {
            OFFSET -0.000000 -49.689274 0.000000
            CHANNELS 3 Zrotation Xrotation Yrotation
            JOINT RightFoot
            {
                OFFSET -0.000000 -39.155319 0.000000
                CHANNELS 3 Zrotation Xrotation Yrotation
                JOINT RightToeBase
                {
                    OFFSET -0.000000 -6.618412 15.273261
                    CHANNELS 3 Zrotation Xrotation Yrotation
                    End Site
                    {
                        OFFSET -0.000000 0.000000 4.072869
                    }
                }
            }
        }
    }
}
MOTION
Frames:    11
Frame Time:    0.008333
30.526247    97.331139    12.247169    -0.005548    1.217062    101.388092    -0.340113    -4.953265    0.587691    -0.380537    8.523257    0.630781    -3.848014    6.632938    -1.704441    6.601892    -4.208632    -0.250144    2.781075    6.795539    -15.987467    -32.099392    -4.158277    -2.819671    23.984922    -47.235493    -119.955658    33.604111    2.425077    38.000240    -1.632518    11.423889    -17.735857    38.913551    56.559967    41.118542    -7.265004    -4.669361    20.734203    -2.701547    -3.478149    5.788891    3.136560    4.165796    -5.151378    -4.568986    -0.498391    -5.447464    1.149385    -4.134023    24.305456    0.000000    0.000000    0.000000    -4.324094    1.893829    -2.644850    4.723719    7.193496    1.487318    -2.390787    -8.400077    -16.523975    0.000000    0.000000    0.000000    
30.523792    97.334007    12.249062    0.008430    1.218812    101.388435    -0.393473    -4.915147    0.593661    -0.262154    8.465446    0.630034    -3.985323    6.642602    -1.741935    6.693773    -4.154806    -0.263909    2.712863    6.828010    -15.984866    -32.174816    -4.081421    -2.867753    25.753834    -47.676731    -118.764954    33.501869    3.914353    37.075104    -1.712415    11.454741    -17.764578    38.952309    56.576881    41.120792    -7.256344    -4.639073    20.721735    -2.629479    -3.446611    5.791522    3.134382    4.184927    -5.158934    -4.565303    -0.514754    -5.434988    1.156980    -4.117185    24.314230    0.000000    0.000000    0.000000    -4.320505    1.912663    -2.637967    4.723816    7.181317    1.475972    -2.385565    -8.394979    -16.523693    0.000000    0.000000    0.000000    
30.517382    97.333649    12.250360    0.006875    1.216490    101.395073    -0.324641    -4.932218    0.569526    -0.394382    8.497973    0.612777    -3.895350    6.707198    -1.746526    6.627889    -4.304373    -0.282293    2.772699    6.815548    -15.889912    -32.245033    -3.940951    -2.929523    28.029694    -48.323353    -116.982864    34.204926    5.517764    35.544270    -1.639681    11.419945    -17.717091    38.889412    56.588078    41.197399    -7.186194    -4.614095    20.645004    -2.683751    -3.442840    5.820234    3.133797    4.180636    -5.195452    -4.553669    -0.519048    -5.415370    1.150165    -4.115004    24.314718    0.000000    0.000000    0.000000    -4.321426    1.913227    -2.628088    4.729640    7.170840    1.479310    -2.397776    -8.382190    -16.538336    0.000000    0.000000    0.000000    
30.516714    97.334229    12.254127    0.017754    1.210502    101.394478    -0.320243    -4.926657    0.563070    -0.380218    8.490485    0.605120    -4.022418    6.733204    -1.685060    6.755893    -4.318136    -0.184198    2.737632    6.821400    -15.853051    -32.286335    -3.694949    -2.968230    30.550474    -48.861084    -115.256310    33.424290    7.259214    34.210213    -1.656007    11.419357    -17.705149    38.926296    56.593853    41.185932    -7.156265    -4.573289    20.630215    -2.696295    -3.408783    5.808775    3.145083    4.190005    -5.215893    -4.554890    -0.518346    -5.411765    1.143279    -4.123436    24.335066    0.000000    0.000000    0.000000    -4.311032    1.930715    -2.620966    4.731961    7.152804    1.468346    -2.392844    -8.375305    -16.530861    0.000000    0.000000    0.000000    
30.510559    97.334236    12.254265    0.007495    1.213280    101.395180    -0.315418    -4.940110    0.558813    -0.384937    8.491658    0.601029    -3.959433    6.615761    -1.675701    6.596448    -4.110362    -0.216133    2.711994    6.835345    -15.829448    -32.299377    -3.478677    -2.990036    33.141300    -49.487743    -113.357307    33.414680    8.965342    32.941158    -1.661188    11.420172    -17.706942    38.905064    56.624458    41.229038    -7.161826    -4.559388    20.598951    -2.566260    -3.391310    5.899241    3.140754    4.176714    -5.242605    -4.559314    -0.519520    -5.383730    1.137042    -4.122485    24.334532    0.000000    0.000000    0.000000    -4.318314    1.916441    -2.628601    4.730791    7.152190    1.477450    -2.391873    -8.377560    -16.518839    0.000000    0.000000    0.000000    
30.508501    97.334824    12.254189    0.001846    1.216101    101.394516    -0.374281    -4.931388    0.578930    -0.276392    8.449286    0.615440    -4.136154    6.694320    -1.706375    6.810112    -4.178608    -0.193172    2.659053    6.880789    -15.878364    -32.352455    -3.158926    -3.005928    35.893578    -50.090000    -111.383224    33.787910    10.869451    31.513901    -1.719140    11.464127    -17.759409    38.890205    56.648872    41.272713    -7.105256    -4.576302    20.607079    -2.841610    -3.428521    5.750911    3.139991    4.168854    -5.260619    -4.566582    -0.519035    -5.366600    1.155147    -4.112461    24.331051    0.000000    0.000000    0.000000    -4.326191    1.914568    -2.624014    4.738586    7.138352    1.425428    -2.409867    -8.362513    -16.468657    0.000000    0.000000    0.000000    
30.505558    97.333336    12.254962    -0.004271    1.215642    101.392349    -0.310324    -4.963762    0.563480    -0.401475    8.494787    0.606705    -3.992201    6.593003    -1.676884    6.615290    -4.047046    -0.213807    2.679002    6.883646    -15.821775    -32.357117    -2.897537    -3.019861    38.754257    -50.628922    -109.151680    34.079216    12.428567    29.648937    -1.628352    11.427852    -17.734997    38.804420    56.684383    41.343662    -7.116328    -4.536785    20.559361    -2.715562    -3.384892    5.803551    3.144557    4.158727    -5.280940    -4.575036    -0.514193    -5.362737    1.157569    -4.116217    24.346270    0.000000    0.000000    0.000000    -4.329898    1.905224    -2.635560    4.742924    7.145856    1.445610    -2.388537    -8.376862    -16.473160    0.000000    0.000000    0.000000    
30.499014    97.331337    12.255560    -0.014131    1.219586    101.377144    -0.305641    -4.974308    0.565264    -0.415298    8.498896    0.609470    -4.018267    6.576750    -1.665863    6.632467    -4.025613    -0.197612    2.646655    6.905400    -15.803820    -32.346905    -2.684212    -3.011868    41.182755    -50.968960    -107.370132    34.683720    14.022298    27.959309    -1.634182    11.432755    -17.729273    38.840008    56.714596    41.325527    -7.133115    -4.521163    20.571632    -2.689906    -3.365204    5.850609    3.142307    4.145353    -5.280788    -4.584936    -0.506877    -5.357775    1.170367    -4.120460    24.348825    0.000000    0.000000    0.000000    -4.340562    1.884180    -2.622576    4.750614    7.157253    1.438979    -2.398843    -8.390909    -16.467812    0.000000    0.000000    0.000000    
30.494967    97.329239    12.254424    -0.023791    1.221292    101.368332    -0.299682    -4.997626    0.571770    -0.435920    8.518822    0.617401    -4.005473    6.566838    -1.659269    6.617219    -4.026628    -0.194153    2.640760    6.923388    -15.817639    -32.344997    -2.562860    -2.990222    43.267109    -51.192970    -105.888046    35.260201    15.403488    26.250879    -1.627699    11.416242    -17.722015    38.837086    56.744030    41.341629    -7.095044    -4.523181    20.531429    -2.718465    -3.378786    5.875847    3.139443    4.128596    -5.282532    -4.587695    -0.495309    -5.334848    1.163162    -4.130882    24.335537    0.000000    0.000000    0.000000    -4.348967    1.869360    -2.628196    4.757384    7.164481    1.479413    -2.423583    -8.389957    -16.496357    0.000000    0.000000    0.000000    
30.491470    97.328171    12.255523    -0.021525    1.216567    101.353203    -0.289904    -5.000051    0.584442    -0.451284    8.522412    0.630722    -3.992677    6.557296    -1.666073    6.605459    -4.017146    -0.204708    2.679309    6.860239    -15.833804    -32.407467    -2.489028    -2.935341    44.767326    -51.206989    -104.999580    36.104782    16.784781    24.542465    -1.606730    11.424529    -17.744764    38.743931    56.792755    41.451786    -7.029562    -4.558464    20.447054    -2.862263    -3.439876    5.921988    3.151372    4.133317    -5.269825    -4.601251    -0.504097    -5.329478    1.170271    -4.124897    24.328083    0.000000    0.000000    0.000000    -4.341126    1.857096    -2.632411    4.748750    7.184298    1.497576    -2.411393    -8.403204    -16.503595    0.000000    0.000000    0.000000    
30.488783    97.325996    12.256351    -0.015724    1.214988    101.350586    -0.277282    -4.999042    0.577493    -0.472007    8.522912    0.624745    -4.013474    6.571661    -1.656621    6.633070    -4.042141    -0.187214    2.679773    6.838826    -15.823524    -32.417107    -2.417277    -2.882049    46.006569    -51.308460    -104.252327    36.120983    17.545084    22.996275    -1.606521    11.428131    -17.722652    38.713459    56.830173    41.508034    -6.988193    -4.515092    20.359768    -2.954641    -3.416189    5.999153    3.156324    4.136321    -5.261383    -4.605007    -0.502370    -5.351672    1.175952    -4.131613    24.340380    0.000000    0.000000    0.000000    -4.335131    1.858576    -2.634073    4.744710    7.188469    1.482884    -2.407130    -8.406230    -16.490345    0.000000    0.000000    0.000000    
